<svg width="30" height="30" viewBox="0 0 30 30" fill="none" xmlns="http://www.w3.org/2000/svg">
<path fill-rule="evenodd" clip-rule="evenodd" d="M2.1386 5.30151C0.916996 4.09396 0.337994 2.80968 0.0915539 0.761845L0 0H4.17398C8.25655 0 8.37354 0.00741971 9.51564 0.338392C10.1578 0.524414 11.1632 0.925476 11.7498 1.22955C14.2317 2.51594 16.0101 5.23792 16.2743 8.15439L16.3632 9.13512L16.8641 8.43568C17.4323 7.64217 18.0923 7.14107 19.1259 6.71802C19.8105 6.43792 20.0378 6.42494 24.9192 6.38585L30 6.34518L29.9059 6.91557C29.4641 9.59276 28.0172 11.812 26.2932 12.4572C25.6434 12.7003 25.2521 12.7195 20.9596 12.7195H16.3273V15.3494V17.8868H13.9282L13.9424 17.8741V13.5146C13.9424 8.74678 13.8623 7.98175 13.3176 7.5534C12.998 7.30192 12.7838 7.28721 9.44754 7.28721C5.59923 7.28721 4.95955 7.20242 3.68402 6.52272C3.31422 6.3257 2.61876 5.77624 2.1386 5.30151Z" fill="#3CDB14"/>
<path fill-rule="evenodd" clip-rule="evenodd" d="M13.9572 17.8868L12.3105 19.3538C11.3969 20.1676 10.5572 21.012 10.4443 21.23C9.18612 23.6633 9.49113 26.5541 11.1721 28.1265C12.3647 29.242 13.7852 29.7443 15.4831 29.6509C18.7734 29.47 21.0555 26.3155 20.2802 23.0198C19.9292 21.5283 19.5589 20.9694 17.8868 19.4082L16.3563 17.9794V17.8868H13.9572Z" fill="#FF833A"/>
<path d="M19.6093 21.3317L14.9719 23.9153L10.4009 21.3317L10.4077 21.3181C10.4909 21.1516 10.6005 20.9996 10.7321 20.8679L11.1958 20.4042L12.1233 19.543L13.912 17.8868H16.2969L18.1518 19.6755L18.9468 20.4704L19.3443 20.9342L19.6093 21.3317Z" fill="#D77034"/>
<path fill-rule="evenodd" clip-rule="evenodd" d="M16.2969 17.8868H13.912V23.297L14.9719 23.9153L16.2969 23.1509V17.8868Z" fill="#3CDB14"/>
<rect x="19.2118" y="8.34715" width="7.28721" height="2.25241" rx="1.12621" fill="#1E9001"/>
<rect x="3.44482" y="2.38489" width="7.28721" height="2.25241" rx="1.12621" fill="#1E9001"/>
</svg>
